<svg xmlns="http://www.w3.org/2000/svg" width="64.26" height="64.26" viewBox="0 0 64.26 64.26"><g id="Layer_2" data-name="Layer 2"><g id="Layer_1-2" data-name="Layer 1"><g id="ns_all_lightbox"><rect width="64.26" height="64.26" style="fill:#55acee"/><circle cx="32.13" cy="32.13" r="20.85" style="fill:#fff"/><path d="M45.35,26a10.48,10.48,0,0,1-3,.82,5.3,5.3,0,0,0,2.31-2.9,10.5,10.5,0,0,1-3.33,1.27,5.26,5.26,0,0,0-9.08,3.57,5.43,5.43,0,0,0,.14,1.22,14.91,14.91,0,0,1-10.81-5.48,5.2,5.2,0,0,0-.71,2.63,5.26,5.26,0,0,0,2.33,4.37,5.13,5.13,0,0,1-2.37-.66v.07A5.25,5.25,0,0,0,25,36a5.17,5.17,0,0,1-1.38.19,5.25,5.25,0,0,1-1-.1,5.24,5.24,0,0,0,4.9,3.64A10.53,10.53,0,0,1,21,42c-.42,0-.84,0-1.25-.07a14.92,14.92,0,0,0,23-12.57c0-.23,0-.45,0-.68A10.67,10.67,0,0,0,45.35,26Z" style="fill:#55acee"/></g></g></g></svg>